<svg width="32" height="32" viewBox="0 0 32 32" fill="none" xmlns="http://www.w3.org/2000/svg">
<path d="M16.9467 16L12.2267 20.72C11.9783 20.9698 11.8389 21.3077 11.8389 21.66C11.8389 22.0122 11.9783 22.3502 12.2267 22.6C12.3506 22.725 12.4981 22.8242 12.6606 22.8918C12.823 22.9595 12.9973 22.9944 13.1733 22.9944C13.3493 22.9944 13.5236 22.9595 13.6861 22.8918C13.8486 22.8242 13.996 22.725 14.12 22.6L19.7733 16.9467C19.8983 16.8227 19.9975 16.6752 20.0652 16.5128C20.1329 16.3503 20.1677 16.176 20.1677 16C20.1677 15.824 20.1329 15.6497 20.0652 15.4872C19.9975 15.3247 19.8983 15.1773 19.7733 15.0533L14.12 9.33332C13.9954 9.20974 13.8477 9.11198 13.6852 9.04563C13.5228 8.97927 13.3488 8.94564 13.1733 8.94665C12.9979 8.94564 12.8239 8.97927 12.6615 9.04563C12.499 9.11198 12.3512 9.20974 12.2267 9.33332C11.9783 9.58314 11.8389 9.92107 11.8389 10.2733C11.8389 10.6256 11.9783 10.9635 12.2267 11.2133L16.9467 16Z" fill="white"/>
</svg>
