<svg width="32" height="32" viewBox="0 0 32 32" fill="none" xmlns="http://www.w3.org/2000/svg">
<path d="M15.0533 16L19.7733 11.28C20.0217 11.0301 20.1611 10.6922 20.1611 10.34C20.1611 9.9877 20.0217 9.64977 19.7733 9.39995C19.6494 9.27498 19.5019 9.17579 19.3394 9.1081C19.177 9.0404 19.0027 9.00555 18.8267 9.00555C18.6507 9.00555 18.4764 9.0404 18.3139 9.1081C18.1514 9.17579 18.004 9.27498 17.88 9.39995L12.2267 15.0533C12.1017 15.1772 12.0025 15.3247 11.9348 15.4872C11.8671 15.6497 11.8323 15.8239 11.8323 16C11.8323 16.176 11.8671 16.3502 11.9348 16.5127C12.0025 16.6752 12.1017 16.8227 12.2267 16.9466L17.88 22.6666C18.0046 22.7902 18.1523 22.888 18.3148 22.9543C18.4772 23.0207 18.6512 23.0543 18.8267 23.0533C19.0021 23.0543 19.1761 23.0207 19.3385 22.9543C19.501 22.888 19.6488 22.7902 19.7733 22.6666C20.0217 22.4168 20.1611 22.0789 20.1611 21.7266C20.1611 21.3744 20.0217 21.0364 19.7733 20.7866L15.0533 16Z" fill="white"/>
</svg>
