<svg width="16" height="20" viewBox="0 0 16 20" fill="none" xmlns="http://www.w3.org/2000/svg">
<path d="M15.63 1.64982C15.5138 1.55584 15.3781 1.48909 15.2327 1.45448C15.0873 1.41987 14.9361 1.41828 14.79 1.44982C13.7214 1.67376 12.6183 1.67662 11.5486 1.4582C10.4789 1.23979 9.46524 0.804734 8.57 0.17982C8.4026 0.0636929 8.20373 0.00146484 8 0.00146484C7.79627 0.00146484 7.5974 0.0636929 7.43 0.17982C6.53476 0.804734 5.52107 1.23979 4.45137 1.4582C3.38166 1.67662 2.27856 1.67376 1.21 1.44982C1.06394 1.41828 0.912665 1.41987 0.767301 1.45448C0.621936 1.48909 0.486176 1.55584 0.37 1.64982C0.253979 1.74394 0.160521 1.86286 0.0964924 1.99784C0.0324637 2.13282 -0.000507912 2.28043 5.94396e-08 2.42982V9.87982C-0.000888977 11.3136 0.340773 12.7268 0.996535 14.0018C1.6523 15.2768 2.60318 16.3767 3.77 17.2098L7.42 19.8098C7.58936 19.9304 7.7921 19.9952 8 19.9952C8.2079 19.9952 8.41064 19.9304 8.58 19.8098L12.23 17.2098C13.3968 16.3767 14.3477 15.2768 15.0035 14.0018C15.6592 12.7268 16.0009 11.3136 16 9.87982V2.42982C16.0005 2.28043 15.9675 2.13282 15.9035 1.99784C15.8395 1.86286 15.746 1.74394 15.63 1.64982ZM14 9.87982C14.0008 10.9946 13.7353 12.0934 13.2257 13.0848C12.716 14.0763 11.977 14.9317 11.07 15.5798L8 17.7698L4.93 15.5798C4.02304 14.9317 3.28398 14.0763 2.77435 13.0848C2.26471 12.0934 1.99923 10.9946 2 9.87982V3.57982C4.09643 3.75925 6.19604 3.27284 8 2.18982C9.80396 3.27284 11.9036 3.75925 14 3.57982V9.87982ZM9.54 7.58982L6.85 10.2898L5.96 9.38982C5.7717 9.20152 5.5163 9.09573 5.25 9.09573C4.9837 9.09573 4.7283 9.20152 4.54 9.38982C4.3517 9.57812 4.24591 9.83352 4.24591 10.0998C4.24591 10.3661 4.3517 10.6215 4.54 10.8098L6.14 12.4098C6.23296 12.5035 6.34356 12.5779 6.46542 12.6287C6.58728 12.6795 6.71799 12.7056 6.85 12.7056C6.98201 12.7056 7.11272 12.6795 7.23458 12.6287C7.35644 12.5779 7.46704 12.5035 7.56 12.4098L11 8.99982C11.1883 8.81152 11.2941 8.55612 11.2941 8.28982C11.2941 8.02352 11.1883 7.76812 11 7.57982C10.8117 7.39152 10.5563 7.28573 10.29 7.28573C10.0237 7.28573 9.7683 7.39152 9.58 7.57982L9.54 7.58982Z" fill="white"/>
</svg>
